<svg width="226.667" height="226.667" xmlns="http://www.w3.org/2000/svg"><defs><clipPath clipPathUnits="userSpaceOnUse" id="a"><path d="M0 170h170V0H0Z"/></clipPath></defs><g clip-path="url(#a)" transform="matrix(1.33333 0 0 -1.33333 0 226.667)"><path d="M0 0c11.367 19.577 36.942 26.206 57.467 14.839 19.576-11.681 26.207-37.26 14.84-57.144C95.67-2.211 81.465 49.26 41.679 71.987 1.576 95.354-49.571 81.462-72.936 41.362-84.3 21.469-77.352-4.104-57.775-15.783-37.573-27.153-11.993-20.523 0 0" style="fill:#ca0b0f;fill-opacity:1;fill-rule:nonzero;stroke:none" transform="translate(84.686 84.682)"/><path d="M0 0c-11.365-20.21-36.942-26.841-57.148-14.842C-77.042-3.469-83.671 22.105-72.62 41.993-95.037 2.208-81.46-49.574-41.677-72.938c40.098-22.416 91.25-8.528 114.935 30.942C84.62-22.102 77.675 3.785 57.783 15.467 37.574 26.835 12.002 19.892 0 0" style="fill:#231759;fill-opacity:1;fill-rule:nonzero;stroke:none" transform="translate(85.001 85.631)"/><path d="M0 0a3.77 3.77 0 1 0 0 7.539A3.77 3.77 0 0 0 0 0m13.269 13.419c-19.149 0-22.013-5.276-22.013-8.142V-4.825H11.46V-7.69h-29.855s-11.007.754-11.007-18.545c0-19.301 7.539-20.809 9.8-20.809h8.144v10.104S-12.666-25.783 0-25.783h20.054s11.007-1.659 11.007 9.197V4.071s1.358 9.348-17.792 9.348" style="fill:#fff;fill-opacity:1;fill-rule:nonzero;stroke:none" transform="translate(73.112 108.77)"/><path d="M0 0a3.77 3.77 0 1 0 0-7.54A3.77 3.77 0 0 0 0 0m19.17 48.099h-8.142V37.997s1.205-11.159-11.46-11.159h-20.054s-11.007 1.659-11.007-9.197V-3.016s-1.356-9.347 17.792-9.347c19.151 0 22.014 5.275 22.014 8.141V5.88h-20.204v2.864h29.855s11.008-.754 11.008 18.547c0 19.3-7.541 20.808-9.802 20.808" style="fill:#fff;fill-opacity:1;fill-rule:nonzero;stroke:none" transform="translate(95.73 53.735)"/></g></svg>