<svg width="17" height="10" viewBox="0 0 17 10" fill="none" xmlns="http://www.w3.org/2000/svg">
<path d="M11.9402 0.55957C11.2348 0.559577 10.5395 0.728016 9.91227 1.05088C9.28502 1.37374 8.74393 1.84169 8.33398 2.41582C7.92404 1.84169 7.38295 1.37374 6.7557 1.05088C6.12846 0.728016 5.43319 0.559577 4.72773 0.55957C4.14456 0.559488 3.56708 0.674292 3.02828 0.897426C2.48949 1.12056 1.99992 1.44765 1.58756 1.86002C1.17519 2.27238 0.848098 2.76195 0.624965 3.30074C0.401831 3.83954 0.287027 4.41702 0.287109 5.0002C0.287027 5.58337 0.401831 6.16085 0.624965 6.69965C0.848098 7.23844 1.17519 7.72801 1.58756 8.14037C1.99992 8.55274 2.48949 8.87983 3.02828 9.10297C3.56708 9.3261 4.14456 9.4409 4.72773 9.44082C6.21523 9.44082 7.52773 8.70644 8.33398 7.58457C8.74429 8.15832 9.28546 8.626 9.91262 8.94882C10.5398 9.27164 11.2349 9.4403 11.9402 9.44082C13.118 9.44082 14.2475 8.97297 15.0802 8.14019C15.913 7.30741 16.3809 6.17792 16.3809 5.0002C16.3809 3.82247 15.913 2.69298 15.0802 1.8602C14.2475 1.02742 13.118 0.55957 11.9402 0.55957ZM11.9402 8.63895C10.9756 8.63828 10.0506 8.25488 9.36842 7.57289C8.6862 6.89091 8.30248 5.96608 8.30148 5.00145C8.30182 4.03653 8.68506 3.11119 9.36706 2.4286C10.0491 1.74602 10.9741 1.36198 11.939 1.36082C12.9042 1.36165 13.8296 1.74539 14.5122 2.42783C15.1947 3.11026 15.5786 4.03563 15.5796 5.00082C15.5783 5.96569 15.1943 6.89064 14.5119 7.57279C13.8296 8.25493 12.9045 8.63858 11.9396 8.63957L11.9402 8.63895Z" fill="white"/>
</svg>
