<svg width="17" height="17" viewBox="0 0 17 17" fill="none" xmlns="http://www.w3.org/2000/svg">
<path d="M8.33333 0.666504C7.23898 0.666504 6.15535 0.882052 5.1443 1.30084C4.13326 1.71963 3.2146 2.33346 2.44078 3.10728C0.877974 4.67008 0 6.7897 0 8.99984C0 12.6832 2.39167 15.8082 5.7 16.9165C6.11667 16.9832 6.25 16.7248 6.25 16.4998V15.0915C3.94167 15.5915 3.45 13.9748 3.45 13.9748C3.06667 13.0082 2.525 12.7498 2.525 12.7498C1.76667 12.2332 2.58333 12.2498 2.58333 12.2498C3.41667 12.3082 3.85833 13.1082 3.85833 13.1082C4.58333 14.3748 5.80833 13.9998 6.28333 13.7998C6.35833 13.2582 6.575 12.8915 6.80833 12.6832C4.95833 12.4748 3.01667 11.7582 3.01667 8.58317C3.01667 7.65817 3.33333 6.9165 3.875 6.32484C3.79167 6.1165 3.5 5.24984 3.95833 4.12484C3.95833 4.12484 4.65833 3.89984 6.25 4.97484C6.90833 4.7915 7.625 4.69984 8.33333 4.69984C9.04167 4.69984 9.75833 4.7915 10.4167 4.97484C12.0083 3.89984 12.7083 4.12484 12.7083 4.12484C13.1667 5.24984 12.875 6.1165 12.7917 6.32484C13.3333 6.9165 13.65 7.65817 13.65 8.58317C13.65 11.7665 11.7 12.4665 9.84167 12.6748C10.1417 12.9332 10.4167 13.4415 10.4167 14.2165V16.4998C10.4167 16.7248 10.55 16.9915 10.975 16.9165C14.2833 15.7998 16.6667 12.6832 16.6667 8.99984C16.6667 7.90549 16.4511 6.82186 16.0323 5.81081C15.6135 4.79976 14.9997 3.8811 14.2259 3.10728C13.4521 2.33346 12.5334 1.71963 11.5224 1.30084C10.5113 0.882052 9.42768 0.666504 8.33333 0.666504Z" fill="white"/>
</svg>
