<svg width="17" height="18" viewBox="0 0 17 18" fill="none" xmlns="http://www.w3.org/2000/svg">
<path d="M9.19047 0.666504C10.128 0.669004 10.6038 0.674004 11.0146 0.685671L11.1763 0.691504C11.363 0.698171 11.5471 0.706504 11.7696 0.716504C12.6563 0.758171 13.2613 0.898171 13.7921 1.104C14.3421 1.31567 14.8055 1.60234 15.2688 2.06484C15.6927 2.48128 16.0206 2.98523 16.2296 3.5415C16.4355 4.07234 16.5755 4.67734 16.6171 5.56484C16.6271 5.7865 16.6355 5.97067 16.6421 6.15817L16.6471 6.31984C16.6596 6.72984 16.6646 7.20567 16.6663 8.14317L16.6671 8.76484V9.8565C16.6692 10.4643 16.6628 11.0722 16.648 11.6798L16.643 11.8415C16.6363 12.029 16.628 12.2132 16.618 12.4348C16.5763 13.3223 16.4346 13.9265 16.2296 14.4582C16.0206 15.0144 15.6927 15.5184 15.2688 15.9348C14.8524 16.3587 14.3484 16.6867 13.7921 16.8957C13.2613 17.1015 12.6563 17.2415 11.7696 17.2832L11.1763 17.3082L11.0146 17.3132C10.6038 17.3248 10.128 17.3307 9.19047 17.3323L8.56881 17.3332H7.47797C6.86986 17.3353 6.26174 17.3289 5.65381 17.314L5.49214 17.309C5.29432 17.3015 5.09653 17.2929 4.89881 17.2832C4.01214 17.2415 3.40714 17.1015 2.87547 16.8957C2.3195 16.6866 1.81584 16.3586 1.39964 15.9348C0.975428 15.5185 0.647231 15.0145 0.437974 14.4582C0.232141 13.9273 0.0921406 13.3223 0.0504739 12.4348L0.025474 11.8415L0.0213074 11.6798C0.00594578 11.0722 -0.000999412 10.4643 0.000473997 9.8565V8.14317C-0.00183258 7.53534 0.00427918 6.9275 0.0188074 6.31984L0.0246407 6.15817C0.0313074 5.97067 0.0396407 5.7865 0.0496407 5.56484C0.0913073 4.67734 0.231307 4.07317 0.437141 3.5415C0.646886 2.985 0.97566 2.48103 1.40047 2.06484C1.81643 1.64113 2.3198 1.31323 2.87547 1.104C3.40714 0.898171 4.01131 0.758171 4.89881 0.716504C5.12047 0.706504 5.30547 0.698171 5.49214 0.691504L5.65381 0.686504C6.26147 0.671698 6.8693 0.665308 7.47714 0.667337L9.19047 0.666504ZM8.33381 4.83317C7.22874 4.83317 6.16893 5.27216 5.38753 6.05356C4.60613 6.83496 4.16714 7.89477 4.16714 8.99984C4.16714 10.1049 4.60613 11.1647 5.38753 11.9461C6.16893 12.7275 7.22874 13.1665 8.33381 13.1665C9.43888 13.1665 10.4987 12.7275 11.2801 11.9461C12.0615 11.1647 12.5005 10.1049 12.5005 8.99984C12.5005 7.89477 12.0615 6.83496 11.2801 6.05356C10.4987 5.27216 9.43888 4.83317 8.33381 4.83317ZM8.33381 6.49984C8.66211 6.49978 8.98721 6.56439 9.29055 6.68998C9.59388 6.81557 9.86951 6.99967 10.1017 7.23178C10.3339 7.46388 10.5181 7.73945 10.6438 8.04274C10.7695 8.34604 10.8342 8.67112 10.8342 8.99942C10.8343 9.32773 10.7697 9.65283 10.6441 9.95616C10.5185 10.2595 10.3344 10.5351 10.1023 10.7673C9.87018 10.9995 9.59461 11.1837 9.29132 11.3094C8.98802 11.4351 8.66294 11.4998 8.33464 11.4998C7.6716 11.4998 7.03571 11.2364 6.56687 10.7676C6.09803 10.2988 5.83464 9.66288 5.83464 8.99984C5.83464 8.3368 6.09803 7.70091 6.56687 7.23207C7.03571 6.76323 7.6716 6.49984 8.33464 6.49984M12.7096 3.58317C12.4334 3.58317 12.1684 3.69292 11.9731 3.88827C11.7777 4.08362 11.668 4.34857 11.668 4.62484C11.668 4.9011 11.7777 5.16606 11.9731 5.36141C12.1684 5.55676 12.4334 5.6665 12.7096 5.6665C12.9859 5.6665 13.2509 5.55676 13.4462 5.36141C13.6416 5.16606 13.7513 4.9011 13.7513 4.62484C13.7513 4.34857 13.6416 4.08362 13.4462 3.88827C13.2509 3.69292 12.9859 3.58317 12.7096 3.58317Z" fill="white"/>
</svg>
