<svg width="16" height="16" viewBox="0 0 16 16" fill="none" xmlns="http://www.w3.org/2000/svg">
<path d="M14.1673 0.5C14.6093 0.5 15.0333 0.675595 15.3458 0.988155C15.6584 1.30072 15.834 1.72464 15.834 2.16667V13.8333C15.834 14.2754 15.6584 14.6993 15.3458 15.0118C15.0333 15.3244 14.6093 15.5 14.1673 15.5H2.50065C2.05862 15.5 1.6347 15.3244 1.32214 15.0118C1.00958 14.6993 0.833984 14.2754 0.833984 13.8333V2.16667C0.833984 1.72464 1.00958 1.30072 1.32214 0.988155C1.6347 0.675595 2.05862 0.5 2.50065 0.5H14.1673ZM13.7507 13.4167V9C13.7507 8.27949 13.4644 7.5885 12.955 7.07903C12.4455 6.56955 11.7545 6.28333 11.034 6.28333C10.3257 6.28333 9.50065 6.71667 9.10065 7.36667V6.44167H6.77565V13.4167H9.10065V9.30833C9.10065 8.66667 9.61732 8.14167 10.259 8.14167C10.5684 8.14167 10.8651 8.26458 11.0839 8.48338C11.3027 8.70217 11.4257 8.99891 11.4257 9.30833V13.4167H13.7507ZM4.06732 5.13333C4.43862 5.13333 4.79472 4.98583 5.05727 4.72328C5.31982 4.46073 5.46732 4.10464 5.46732 3.73333C5.46732 2.95833 4.84232 2.325 4.06732 2.325C3.6938 2.325 3.33559 2.47338 3.07148 2.73749C2.80736 3.0016 2.65898 3.35982 2.65898 3.73333C2.65898 4.50833 3.29232 5.13333 4.06732 5.13333ZM5.22565 13.4167V6.44167H2.91732V13.4167H5.22565Z" fill="white"/>
</svg>
