<svg width="21" height="20" viewBox="0 0 21 20" fill="none" xmlns="http://www.w3.org/2000/svg">
<path d="M4.00065 16.6668C3.54232 16.6668 3.1501 16.5038 2.82398 16.1777C2.49787 15.8516 2.33454 15.4591 2.33398 15.0002V5.00016C2.33398 4.54183 2.49732 4.14961 2.82398 3.8235C3.15065 3.49738 3.54287 3.33405 4.00065 3.3335H17.334C17.7923 3.3335 18.1848 3.49683 18.5115 3.8235C18.8382 4.15016 19.0012 4.54238 19.0007 5.00016V15.0002C19.0007 15.4585 18.8376 15.851 18.5115 16.1777C18.1854 16.5043 17.7929 16.6674 17.334 16.6668H4.00065ZM10.6673 10.6877C10.7368 10.6877 10.8098 10.6771 10.8865 10.656C10.9632 10.6349 11.0359 10.6038 11.1048 10.5627L17.0007 6.87516C17.1118 6.80572 17.1951 6.71905 17.2507 6.61516C17.3062 6.51127 17.334 6.39655 17.334 6.271C17.334 5.99322 17.2159 5.78488 16.9798 5.646C16.7437 5.50711 16.5007 5.51405 16.2507 5.66683L10.6673 9.16683L5.08398 5.66683C4.83398 5.51405 4.59093 5.51072 4.35482 5.65683C4.11871 5.80294 4.00065 6.00766 4.00065 6.271C4.00065 6.40988 4.02843 6.53155 4.08398 6.636C4.13954 6.74044 4.22287 6.82016 4.33398 6.87516L10.2298 10.5627C10.2993 10.6043 10.3723 10.6357 10.449 10.6568C10.5257 10.6779 10.5984 10.6882 10.6673 10.6877Z" fill="white"/>
</svg>
