<svg width="17" height="12" viewBox="0 0 17 12" fill="none" xmlns="http://www.w3.org/2000/svg">
<path d="M6.66764 8.49984L10.9926 5.99984L6.66764 3.49984V8.49984ZM16.301 1.97484C16.4093 2.3665 16.4843 2.8915 16.5343 3.55817C16.5926 4.22484 16.6176 4.79984 16.6176 5.29984L16.6676 5.99984C16.6676 7.82484 16.5343 9.1665 16.301 10.0248C16.0926 10.7748 15.6093 11.2582 14.8593 11.4665C14.4676 11.5748 13.751 11.6498 12.651 11.6998C11.5676 11.7582 10.576 11.7832 9.65931 11.7832L8.33431 11.8332C4.84264 11.8332 2.66764 11.6998 1.80931 11.4665C1.05931 11.2582 0.575977 10.7748 0.367643 10.0248C0.25931 9.63317 0.18431 9.10817 0.13431 8.4415C0.0759766 7.77484 0.0509765 7.19984 0.0509765 6.69984L0.000976562 5.99984C0.000976562 4.17484 0.13431 2.83317 0.367643 1.97484C0.575977 1.22484 1.05931 0.741504 1.80931 0.533171C2.20098 0.424837 2.91764 0.349837 4.01764 0.299837C5.10098 0.241504 6.09264 0.216504 7.00931 0.216504L8.33431 0.166504C11.826 0.166504 14.001 0.299837 14.8593 0.533171C15.6093 0.741504 16.0926 1.22484 16.301 1.97484Z" fill="white"/>
</svg>
